<svg height="512" viewBox="0 0 64 64" width="512" xmlns="http://www.w3.org/2000/svg"><g id="book-notebook-file-computer-laptop"><path d="m61.28 58.21-5.28-19.34v-27.87a3.009 3.009 0 0 0 -3-3h-1v-3a1 1 0 0 0 -1-1h-3v-1a1 1 0 0 0 -1-1h-11a1 1 0 0 0 -.45.11l-3.55 1.77-3.55-1.77a1 1 0 0 0 -.45-.11h-11a1 1 0 0 0 -1 1v1h-3a1 1 0 0 0 -1 1v3h-1a3.009 3.009 0 0 0 -3 3v27.87l-5.28 19.34a3 3 0 0 0 2.9 3.79h52.76a3 3 0 0 0 2.9-3.79zm-28.28-52.59 3.24-1.62h9.76v22h-10a1 1 0 0 0 -.45.11l-2.55 1.27zm-15-1.62h9.76l3.24 1.62v21.76l-2.55-1.27a1 1 0 0 0 -.45-.11h-10zm-4 2h2v21a1 1 0 0 0 1 1h10.76l3.79 1.89a.975.975 0 0 0 .9 0l3.79-1.89h10.76a1 1 0 0 0 1-1v-21h2v24h-36zm-4 5a1 1 0 0 1 1-1h1v21a1 1 0 0 0 1 1h38a1 1 0 0 0 1-1v-21h1a1 1 0 0 1 1 1v27h-44zm49.18 48.61a.99.99 0 0 1 -.8.39h-52.76a.99.99 0 0 1 -.8-.39 1 1 0 0 1 -.17-.87l5.11-18.74h44.48l5.11 18.74a1 1 0 0 1 -.17.87z"/><path d="m40.97 52.758a1 1 0 0 0 -.97-.758h-16a1 1 0 0 0 -.97.758l-1 4a1 1 0 0 0 .97 1.242h18a1 1 0 0 0 .97-1.242zm-16.689 3.242.5-2h14.438l.5 2z"/><path d="m27 34h10v2h-10z"/><path d="m12 42h4v2h-4z"/><path d="m18 42h4v2h-4z"/><path d="m24 42h4v2h-4z"/><path d="m36 42h4v2h-4z"/><path d="m42 42h4v2h-4z"/><path d="m48 42h4v2h-4z"/><path d="m30 42h4v2h-4z"/><path d="m12 46h4v2h-4z"/><path d="m18 46h4v2h-4z"/><path d="m24 46h4v2h-4z"/><path d="m36 46h4v2h-4z"/><path d="m42 46h4v2h-4z"/><path d="m48 46h4v2h-4z"/><path d="m30 46h4v2h-4z"/><path d="m20 8h9v2h-9z"/><path d="m20 14h9v2h-9z"/><path d="m20 20h9v2h-9z"/><path d="m35 8h9v2h-9z"/><path d="m35 14h9v2h-9z"/><path d="m35 20h9v2h-9z"/></g></svg>